<?xml version="1.0" encoding="utf-8"?>
<!DOCTYPE svg PUBLIC "-//W3C//DTD SVG 1.1//EN" "http://www.w3.org/Graphics/SVG/1.1/DTD/svg11.dtd">
<svg xmlns="http://www.w3.org/2000/svg" xmlns:xlink="http://www.w3.org/1999/xlink" version="1.1" baseProfile="full" width="1024" height="768" viewBox="0 0 1024.00 768.00" enable-background="new 0 0 1024.00 768.00" xml:space="preserve">
	<rect x="5.02384e-006" y="-0.000183105" fill="#3D3D3D" fill-opacity="1" stroke-linejoin="round" width="1024" height="768"/>
	<g>
		<g>
			<path fill="#0096FF" fill-opacity="1" stroke-width="0.2" stroke-linejoin="round" d="M 256.97,94.0769L 767.03,94.0769L 721.492,614.398L 514.672,673.923L 303.627,614.413L 256.97,94.0769 Z "/>
			<path fill="#FFFFFF" fill-opacity="0.301961" stroke-width="0.2" stroke-linejoin="round" d="M 513.4,136.908L 721.901,136.908L 681.297,582.237L 513.823,629.18L 513.4,136.908 Z "/>
		</g>
		<g>
			<path fill="#FFFFFF" fill-opacity="1" stroke-linejoin="round" d="M 697.24,486.918L 719.918,429.572L 785.396,429.572L 754.319,342.58L 793.185,244.299L 904.5,539.853L 822.409,539.853L 803.385,486.918L 697.24,486.918 Z "/>
			<path fill="#FFFFFF" fill-opacity="1" stroke-linejoin="round" d="M 627.205,523.702L 746.37,228.147L 667.367,228.147L 585.85,419.141L 527.883,228.148L 467.159,228.148L 404.919,419.141L 361.026,332.109L 321.304,454.485L 361.633,523.702L 439.382,523.702L 495.625,352.421L 549.25,523.702L 627.205,523.702 Z "/>
			<path fill="#FFFFFF" fill-opacity="1" stroke-linejoin="round" d="M 194.491,422.243L 243.153,422.243C 257.893,422.243 271.019,420.598 282.531,417.308L 295.115,378.537L 330.287,270.179C 327.607,265.931 324.547,261.915 321.108,258.131C 303.05,238.142 276.628,228.148 241.843,228.148L 119.5,228.148L 119.5,523.702L 194.491,523.702L 194.491,422.243 Z M 258.902,296.143C 265.956,303.242 269.483,312.742 269.483,324.644C 269.483,336.637 266.381,346.148 260.178,353.179C 253.377,360.991 240.855,364.896 222.613,364.896L 194.491,364.896L 194.491,285.494L 222.82,285.494C 239.821,285.494 251.849,289.043 258.902,296.143 Z "/>
		</g>
	</g>
</svg>
