<?xml version="1.0" encoding="UTF-8"?><svg xmlns="http://www.w3.org/2000/svg" viewBox="0 0 135 40"><defs><style>.d{fill:#fff;}.e{font-family:OpenSans, Open Sans;font-size:8px;}.f{font-family:OpenSans-Semibold, Open Sans;font-size:14px;font-weight:700;}.g{fill:#a6a6a6;}.h{fill:#5a0fc8;}</style></defs><g id="a"><g><path class="g" d="M130.2,40H4.73c-2.61,0-4.73-2.13-4.73-4.73V4.73C0,2.12,2.12,0,4.73,0h125.47c2.61,0,4.8,2.12,4.8,4.73v30.54c0,2.61-2.2,4.73-4.8,4.73h0Z"/><path d="M134.03,35.27c0,2.12-1.71,3.83-3.83,3.83H4.73c-2.12,0-3.84-1.71-3.84-3.83V4.72C.89,2.61,2.61,.89,4.73,.89h125.47c2.12,0,3.83,1.72,3.83,3.84v30.54h0Z"/></g><g><path class="d" d="M40.56,25.26l1.26-3.18h3.63l-1.72-4.82,2.15-5.45,6.17,16.38h-4.55l-1.05-2.93h-5.88Z"/><path class="h" d="M36.68,28.19l6.6-16.38h-4.38l-4.52,10.59-3.21-10.59h-3.37l-3.45,10.59-2.43-4.82-2.2,6.78,2.24,3.84h4.31l3.12-9.49,2.97,9.49h4.32Z"/><path class="d" d="M12.7,22.57h2.7c.82,0,1.54-.09,2.18-.27l.7-2.15,1.95-6.01c-.15-.24-.32-.46-.51-.67-1-1.11-2.47-1.66-4.39-1.66h-6.78V28.19h4.16v-5.62Zm3.57-6.99c.39,.39,.59,.92,.59,1.58s-.17,1.19-.52,1.58c-.38,.43-1.07,.65-2.08,.65h-1.56v-4.4h1.57c.94,0,1.61,.2,2,.59Z"/></g><text class="d" transform="translate(60.46 14.45)"><tspan class="e"><tspan x="0" y="0">Ouvrir en</tspan></tspan><tspan class="f"><tspan x="0" y="14">Web App</tspan></tspan></text></g><g id="b"/><g id="c"/></svg>