<svg id="US_UK_Download_on_the" data-name="US UK Download on the" xmlns="http://www.w3.org/2000/svg" viewBox="0 0 135 40"><defs><style>.cls-1{fill:#a6a6a6;}.cls-2{fill:#fff;}.cls-3{fill:#5a0fc8;}</style></defs><path class="cls-1" d="M130.2,40H4.73A4.74,4.74,0,0,1,0,35.27V4.73A4.73,4.73,0,0,1,4.73,0H130.2A4.8,4.8,0,0,1,135,4.73V35.27A4.81,4.81,0,0,1,130.2,40Z"/><path class="cls-2" d="M134,35.27a3.83,3.83,0,0,1-3.83,3.83H4.73A3.84,3.84,0,0,1,.89,35.27V4.72A3.84,3.84,0,0,1,4.73.89H130.2A3.83,3.83,0,0,1,134,4.72V35.27Z"/><path d="M40.56,25.26l1.26-3.18h3.63l-1.72-4.82,2.15-5.45,6.17,16.38H47.5l-1-2.93Z"/><path class="cls-3" d="M36.68,28.19l6.61-16.38H38.91L34.39,22.4,31.18,11.81H27.81L24.36,22.4l-2.43-4.83-2.2,6.78L22,28.19h4.31l3.12-9.49,3,9.49Z"/><path d="M12.7,22.57h2.7a7.64,7.64,0,0,0,2.18-.28l.7-2.15,1.95-6a4.74,4.74,0,0,0-.51-.67,5.61,5.61,0,0,0-4.39-1.66H8.55V28.19H12.7Zm3.57-7a2.14,2.14,0,0,1,.59,1.58,2.28,2.28,0,0,1-.52,1.58,2.69,2.69,0,0,1-2.08.65H12.7V15h1.57A2.73,2.73,0,0,1,16.27,15.58Z"/><path d="M61.25,14.45V8.74h.66v5.71Z"/><path d="M66.31,14.45V11.68a1.1,1.1,0,0,0-.24-.78,1,1,0,0,0-.74-.26,1.22,1.22,0,0,0-1,.37,1.82,1.82,0,0,0-.31,1.2v2.24h-.65V10.17h.53l.1.59h0a1.33,1.33,0,0,1,.56-.49,1.77,1.77,0,0,1,.8-.18,1.63,1.63,0,0,1,1.17.38A1.56,1.56,0,0,1,67,11.66v2.79Z"/><path d="M68.24,9a.41.41,0,0,1,.11-.33.4.4,0,0,1,.54,0A.44.44,0,0,1,69,9a.45.45,0,0,1-.11.33.39.39,0,0,1-.27.1.36.36,0,0,1-.27-.1A.41.41,0,0,1,68.24,9Zm.7,5.44h-.65V10.17h.65Z"/><path d="M72,14.53A1.83,1.83,0,0,1,70.59,14a2.35,2.35,0,0,1-.51-1.62,2.44,2.44,0,0,1,.51-1.66,1.88,1.88,0,0,1,1.48-.59,3.37,3.37,0,0,1,.62.07,1.92,1.92,0,0,1,.48.16l-.2.55a2.88,2.88,0,0,0-.47-.15,2.68,2.68,0,0,0-.45-.05c-.87,0-1.3.55-1.3,1.66a1.92,1.92,0,0,0,.32,1.21A1.1,1.1,0,0,0,72,14a2.79,2.79,0,0,0,1.1-.23v.58A2.34,2.34,0,0,1,72,14.53Z"/><path d="M74.07,9a.41.41,0,0,1,.11-.33.39.39,0,0,1,.65.33.41.41,0,0,1-.11.33.39.39,0,0,1-.27.1.36.36,0,0,1-.27-.1A.41.41,0,0,1,74.07,9Zm.7,5.44h-.65V10.17h.65Z"/><path d="M78.78,14.45l-.13-.61h0a1.85,1.85,0,0,1-.64.55,2,2,0,0,1-.79.14,1.42,1.42,0,0,1-1-.33,1.2,1.2,0,0,1-.36-.93c0-.87.69-1.32,2.07-1.36l.73,0v-.27a1.09,1.09,0,0,0-.22-.74.89.89,0,0,0-.69-.24,2.91,2.91,0,0,0-1.21.32l-.2-.49A2.61,2.61,0,0,1,77,10.2a2.78,2.78,0,0,1,.76-.1,1.61,1.61,0,0,1,1.13.34,1.41,1.41,0,0,1,.37,1.09v2.92ZM77.31,14a1.35,1.35,0,0,0,1-.34,1.22,1.22,0,0,0,.34-.93v-.38l-.65,0a2.37,2.37,0,0,0-1.11.24.74.74,0,0,0-.34.67.66.66,0,0,0,.21.53A.89.89,0,0,0,77.31,14Z"/><path d="M82.55,10.09a2.59,2.59,0,0,1,.51.05l-.09.6a2.16,2.16,0,0,0-.47-.06,1.15,1.15,0,0,0-.89.42,1.61,1.61,0,0,0-.37,1.06v2.29H80.6V10.17h.53l.07.79h0a1.88,1.88,0,0,1,.57-.64A1.3,1.3,0,0,1,82.55,10.09Z"/><path d="M87.65,14.53A1.83,1.83,0,0,1,86.21,14a2.35,2.35,0,0,1-.51-1.62,2.39,2.39,0,0,1,.52-1.66,1.86,1.86,0,0,1,1.47-.59,3.27,3.27,0,0,1,.62.07,1.67,1.67,0,0,1,.48.16l-.19.55a3.23,3.23,0,0,0-.47-.15,2.68,2.68,0,0,0-.45-.05c-.87,0-1.31.55-1.31,1.66a2,2,0,0,0,.32,1.21,1.11,1.11,0,0,0,.94.42,2.75,2.75,0,0,0,1.1-.23v.58A2.31,2.31,0,0,1,87.65,14.53Z"/><path d="M93.44,12.31a2.35,2.35,0,0,1-.52,1.63,1.88,1.88,0,0,1-1.46.59,1.94,1.94,0,0,1-1-.27,1.78,1.78,0,0,1-.69-.77,2.73,2.73,0,0,1-.24-1.18A2.35,2.35,0,0,1,90,10.68a1.87,1.87,0,0,1,1.46-.59,1.8,1.8,0,0,1,1.42.6A2.33,2.33,0,0,1,93.44,12.31Zm-3.26,0a2,2,0,0,0,.33,1.25,1.3,1.3,0,0,0,1.93,0,2,2,0,0,0,.33-1.25,2,2,0,0,0-.33-1.24,1.16,1.16,0,0,0-1-.43,1.12,1.12,0,0,0-1,.42A2,2,0,0,0,90.18,12.31Z"/><path d="M100,14.45V11.67a1.2,1.2,0,0,0-.22-.77.85.85,0,0,0-.68-.26,1.13,1.13,0,0,0-.9.35A1.67,1.67,0,0,0,98,12.06v2.39h-.64V11.67a1.2,1.2,0,0,0-.22-.77.88.88,0,0,0-.69-.26,1.08,1.08,0,0,0-.89.37,2,2,0,0,0-.28,1.2v2.24h-.65V10.17h.53l.1.59h0a1.36,1.36,0,0,1,.52-.49,1.54,1.54,0,0,1,.75-.18,1.27,1.27,0,0,1,1.31.73h0a1.43,1.43,0,0,1,.56-.53,1.73,1.73,0,0,1,.83-.2,1.43,1.43,0,0,1,1.08.38,1.6,1.6,0,0,1,.37,1.19v2.79Z"/><path d="M105.72,12.31a2.35,2.35,0,0,1-.53,1.63,1.87,1.87,0,0,1-1.46.59,1.94,1.94,0,0,1-1-.27,1.82,1.82,0,0,1-.68-.77,2.59,2.59,0,0,1-.25-1.18,2.35,2.35,0,0,1,.53-1.63,1.85,1.85,0,0,1,1.45-.59,1.82,1.82,0,0,1,1.43.6A2.38,2.38,0,0,1,105.72,12.31Zm-3.27,0a2,2,0,0,0,.33,1.25,1.3,1.3,0,0,0,1.93,0,2,2,0,0,0,.33-1.25,2,2,0,0,0-.33-1.24,1.16,1.16,0,0,0-1-.43,1.14,1.14,0,0,0-1,.42A2,2,0,0,0,102.45,12.31Z"/><path d="M71,28.45H69.23l-1.7-6c-.07-.26-.16-.63-.27-1.12s-.18-.83-.2-1c0,.3-.12.67-.22,1.14s-.19.81-.26,1l-1.65,5.93H63.15l-1.29-5-1.32-5h1.67l1.43,5.82c.22.94.38,1.76.48,2.48,0-.39.12-.82.23-1.3s.19-.87.27-1.16l1.63-5.84h1.62l1.66,5.86A22.75,22.75,0,0,1,70,26.76a18.14,18.14,0,0,1,.49-2.49L72,18.46h1.66Z"/><path d="M78.15,28.59a3.63,3.63,0,0,1-2.75-1,3.88,3.88,0,0,1-1-2.83,4.33,4.33,0,0,1,.92-2.92,3.22,3.22,0,0,1,2.54-1.06,3.15,3.15,0,0,1,2.37.91,3.52,3.52,0,0,1,.86,2.51V25h-5a2.51,2.51,0,0,0,.59,1.7,2.08,2.08,0,0,0,1.58.59,5.51,5.51,0,0,0,1.25-.13,6.05,6.05,0,0,0,1.24-.42v1.31a5,5,0,0,1-1.19.39A7.09,7.09,0,0,1,78.15,28.59ZM77.86,22a1.6,1.6,0,0,0-1.23.49,2.28,2.28,0,0,0-.55,1.41h3.43a2.12,2.12,0,0,0-.45-1.42A1.54,1.54,0,0,0,77.86,22Z"/><path d="M86.78,20.75a2.62,2.62,0,0,1,2.2,1,4.59,4.59,0,0,1,.79,2.88,4.58,4.58,0,0,1-.8,2.89,2.91,2.91,0,0,1-4.45,0h-.11l-.29.89h-1.2V17.82h1.6v2.52c0,.19,0,.47,0,.84s0,.6,0,.7h.06A2.57,2.57,0,0,1,86.78,20.75Zm-.42,1.32a1.65,1.65,0,0,0-1.4.57,3.37,3.37,0,0,0-.44,1.91v.11a3.55,3.55,0,0,0,.44,2,1.64,1.64,0,0,0,1.43.62,1.47,1.47,0,0,0,1.3-.68,3.62,3.62,0,0,0,.44-2C88.13,22.93,87.54,22.07,86.36,22.07Z"/><path d="M101.65,28.45l-1-2.77H96.83l-1,2.77H94.13l3.74-10h1.78l3.73,10Zm-1.43-4.18-.94-2.72c-.07-.18-.16-.47-.28-.86s-.2-.68-.25-.86a14,14,0,0,1-.54,1.83l-.9,2.61Z"/><path d="M108.37,28.59a2.64,2.64,0,0,1-2.23-1H106c.07.63.1,1,.1,1.16v3.1h-1.61V20.89h1.3c0,.14.11.48.23,1h.08a2.53,2.53,0,0,1,2.26-1.15,2.64,2.64,0,0,1,2.2,1,4.59,4.59,0,0,1,.79,2.88,4.66,4.66,0,0,1-.8,2.89A2.67,2.67,0,0,1,108.37,28.59ZM108,22.07a1.65,1.65,0,0,0-1.4.56,2.92,2.92,0,0,0-.44,1.79v.24a3.46,3.46,0,0,0,.44,2,1.62,1.62,0,0,0,1.43.62,1.44,1.44,0,0,0,1.28-.69,3.52,3.52,0,0,0,.45-1.95,3.41,3.41,0,0,0-.45-1.92A1.48,1.48,0,0,0,108,22.07Z"/><path d="M117.09,28.59a2.64,2.64,0,0,1-2.23-1h-.09c.06.63.09,1,.09,1.16v3.1h-1.6V20.89h1.29c0,.14.12.48.23,1h.08a2.53,2.53,0,0,1,2.26-1.15,2.62,2.62,0,0,1,2.2,1,4.59,4.59,0,0,1,.79,2.88,4.66,4.66,0,0,1-.8,2.89A2.67,2.67,0,0,1,117.09,28.59Zm-.39-6.52a1.66,1.66,0,0,0-1.4.56,2.92,2.92,0,0,0-.44,1.79v.24a3.55,3.55,0,0,0,.44,2,1.64,1.64,0,0,0,1.43.62,1.44,1.44,0,0,0,1.28-.69,3.52,3.52,0,0,0,.45-1.95,3.41,3.41,0,0,0-.44-1.92A1.51,1.51,0,0,0,116.7,22.07Z"/></svg>