<svg xmlns="http://www.w3.org/2000/svg" viewBox="0 0 450 470"><defs><style>.cls-1{fill:#2b50a2}.cls-2{fill:#7b97c9}.cls-3{fill:#eee}.cls-4{fill:#f6f9f8}</style></defs><title>Artboard 1</title><path d="M387.06,54l-28.7,323.73L226,415.18,225,54H387.06M410,33H40L73,394l153,43,152-43L410,33Z" class="cls-1"/><polygon points="358.36 377.73 387.06 54 225 54 225.98 415.18 358.36 377.73" class="cls-2"/><polygon points="225 275.75 225 303.75 165 315.75 166 330.75 225 319.75 225 347.75 168 357.75 169 381.75 116 368.75 110 300.75 225 275.75" class="cls-3"/><polygon points="225 237.75 160 281.75 110 291.75 101 196.75 150 188.75 155 230.75 225 182.75 225 237.75" class="cls-3"/><polygon points="225 154 225 122 144.5 122 143.5 106 225 106 225 75 89.5 77 100.5 188 149.5 180 147.5 154 225 154" class="cls-3"/><polygon points="224 75 224 106 304.5 106 302.5 122 224 122 224 154 350.5 156 358.5 77 224 75" class="cls-4"/><polygon points="224 275.75 224 303.75 284 315.75 283 330.75 224 319.75 224 347.75 281 357.75 280 381.75 333 368.75 339 300.75 224 275.75" class="cls-4"/><polygon points="325.48 169.23 347.57 190.82 348 185.75 326.5 162.75 300 183.75 299.41 188.4 325.48 169.23" class="cls-4"/><polygon points="324.48 182.01 346.49 203.52 347.02 197.28 325.02 175.77 298.53 195.25 297.71 201.69 324.48 182.01" class="cls-4"/><polygon points="324.02 188.55 296.83 208.54 294 230.75 224 182.75 224 237.75 289 281.75 339 291.75 345.94 209.98 324.02 188.55" class="cls-4"/></svg>